# xmcd
#
# Track frame offsets: 
#        150
#        16497
#        34600
#        44477
#        64892
#        90930
#        112274
#        140753
#        173206
#        187390
#        199586
#        231569
#        248632
#        277429
#
# Disc length: 4052 seconds
#
# Revision: 5
# Processed by: cddbd v1.5.2PL0 Copyright (c) Steve Scherf et al.
# Submitted via: ExactAudioCopyFreeDBPlugin 1.0
#
DISCID=da0fd20e
DTITLE=ГрАссмейстер - Инструментальный альбом
DYEAR=2006
DGENRE=Bluegrass
TTITLE0=Стекло
TTITLE1=Эльф 1
TTITLE2=Эльф 2
TTITLE3=Боса Нога
TTITLE4=Рождество
TTITLE5=Мумба
TTITLE6=Фест
TTITLE7=Посвящение А.Баранову
TTITLE8=Funky-Grass
TTITLE9=When I'm Sixty-Four
TTITLE10=Из Анкары в Измир
TTITLE11=Для тебя!
TTITLE12=Гроза
TTITLE13=Черный ворон
EXTD=YEAR: 2006
EXTT0=
EXTT1=
EXTT2=
EXTT3=
EXTT4=
EXTT5=
EXTT6=
EXTT7=
EXTT8=
EXTT9=
EXTT10=
EXTT11=
EXTT12=
EXTT13=
PLAYORDER=
